<svg width="530" height="848" viewBox="0 0 530 848" fill="none" xmlns="http://www.w3.org/2000/svg">
<path d="M53.0276 0.0345024C45.5754 0.0345024 38.6753 1.4146 32.3271 4.17479C25.979 6.93498 20.4589 10.6612 15.7668 15.3536C11.0747 20.0459 7.2106 25.7043 4.17454 32.3287C1.13848 38.9532 -0.241554 45.8537 0.0344522 53.0302V794.97C0.0344522 802.422 1.41448 809.323 4.17454 815.671C6.9346 822.02 10.6607 827.54 15.3528 832.232C20.0449 836.925 25.703 840.789 32.3271 843.825C38.9513 846.861 45.8514 848.241 53.0276 847.965H476.972C484.425 847.965 491.325 846.585 497.673 843.825C504.021 841.065 509.541 837.339 514.233 832.646C518.925 827.954 522.789 822.296 525.825 815.671C528.861 809.047 530.242 802.146 529.965 794.97V53.0302C529.965 45.5777 528.585 38.6772 525.825 32.3287C523.065 25.9803 519.339 20.4599 514.647 15.7676C509.955 11.0753 504.297 7.211 497.673 4.17479C491.049 1.13858 484.149 -0.241517 476.972 0.0345024H53.0276ZM53.0276 53.0302H476.972V794.97H53.0276V53.0302ZM317.993 688.978H212.007V741.974H317.993V688.978Z" fill="black" fill-opacity="0.9"/>
</svg>
