<svg width="16" height="22" viewBox="0 0 16 22" fill="none" xmlns="http://www.w3.org/2000/svg">
<path d="M1 1C1 1.39782 1.15804 1.77936 1.43934 2.06066C1.72064 2.34196 2.10218 2.5 2.5 2.5H5C6.886 2.5 7.828 2.5 8.414 3.086C8.818 3.49 8.944 4.064 8.983 5M9 8V10M3.192 17.071C3.344 18.984 4.859 20.609 6.812 20.849C7.53 20.938 8.26 21 9 21C9.74 21 10.47 20.938 11.188 20.85C13.141 20.609 14.655 18.984 14.808 17.071C14.913 15.745 15 14.386 15 13C15 11.614 14.913 10.255 14.807 8.929C14.656 7.016 13.141 5.391 11.187 5.151C10.4617 5.05628 9.73139 5.00585 9 5C8.26 5 7.53 5.062 6.812 5.15C4.859 5.391 3.344 7.016 3.192 8.929C3.087 10.255 3 11.614 3 13C3 14.386 3.087 15.745 3.192 17.071Z" stroke="black" stroke-width="0.5" stroke-linecap="round" stroke-linejoin="round"/>
</svg>
